<svg version="1.1" id="Layer_1" xmlns="http://www.w3.org/2000/svg" xmlns:xlink="http://www.w3.org/1999/xlink" x="0px" y="0px"
	 width="100%" viewBox="0 0 609 169" enable-background="new 0 0 609 169" xml:space="preserve">
<path fill="#FEFEFE" opacity="1.000000" stroke="none" 
	d="
M437.000000,170.000000 
	C291.333344,170.000000 146.166672,170.000000 1.000000,170.000000 
	C1.000000,113.666664 1.000000,57.333332 1.000000,1.000000 
	C204.000000,1.000000 407.000000,1.000000 610.000000,1.000000 
	C610.000000,57.333332 610.000000,113.666664 610.000000,170.000000 
	C552.500000,170.000000 495.000000,170.000000 437.000000,170.000000 
M134.154846,138.905823 
	C138.512741,135.873398 140.108734,131.652573 140.057007,126.422043 
	C139.925247,113.092491 140.013916,99.760773 140.014328,86.429916 
	C140.014420,83.537819 140.014328,80.645721 140.014328,76.820145 
	C145.083710,81.036018 149.182144,84.660431 153.560623,87.907166 
	C154.458679,88.573074 156.404861,87.825493 157.867905,87.729439 
	C157.702194,86.393425 157.859985,84.889801 157.279175,83.768875 
	C156.706116,82.662888 155.413971,81.910072 154.388977,81.060600 
	C137.335068,66.927055 120.295586,52.775993 103.205017,38.686897 
	C93.813034,30.944353 89.392891,31.044420 80.029831,38.844601 
	C63.008343,53.024860 45.955582,67.167595 28.947014,81.363304 
	C26.941891,83.036827 23.089657,84.573105 25.941160,87.850822 
	C28.672251,90.990135 30.877060,87.396629 33.097347,85.982956 
	C33.374935,85.806221 33.594700,85.540688 33.850449,85.327309 
	C50.734226,71.240158 67.600540,57.131992 84.512886,43.079212 
	C91.041344,37.654594 93.015953,37.689701 99.621017,43.198074 
	C110.111237,51.946518 120.637413,60.656124 130.932236,69.630112 
	C132.536880,71.028877 133.824463,73.728821 133.854950,75.847275 
	C134.092300,92.340790 134.021729,108.839355 133.969055,125.336121 
	C133.945618,132.674408 131.338547,135.271805 124.054070,135.296829 
	C110.723381,135.342606 97.392380,135.321259 84.061607,135.289093 
	C82.809334,135.286087 81.557732,135.006851 80.025192,134.822037 
	C80.025192,122.668274 80.027649,110.858925 80.023422,99.049576 
	C80.022385,96.162529 81.393707,94.813606 84.333595,94.866158 
	C88.831268,94.946579 93.341003,95.065018 97.827972,94.830170 
	C102.279182,94.597183 104.204559,96.191002 104.056076,100.859154 
	C103.801910,108.849564 103.848305,116.858536 104.112854,124.848312 
	C104.161774,126.325790 105.836861,127.749428 106.761398,129.197906 
	C107.844711,127.849792 109.823235,126.529510 109.866127,125.149086 
	C110.145439,116.159569 110.136482,107.154289 109.951736,98.159714 
	C109.840889,92.763245 106.152962,89.113815 100.772003,88.931137 
	C94.946838,88.733360 89.105484,88.739471 83.279350,88.920013 
	C77.427124,89.101387 74.074257,92.526329 73.895882,98.353668 
	C73.748100,103.181702 73.850159,108.017509 73.848000,112.849869 
	C73.844757,120.128540 73.847160,127.407219 73.847160,135.118866 
	C69.403076,135.118866 65.602776,135.119492 61.802471,135.118759 
	C51.324570,135.116745 49.883919,133.702042 49.881088,123.389618 
	C49.877796,111.391853 50.014973,99.391098 49.749607,87.399208 
	C49.704594,85.364883 48.084560,81.755470 46.944393,81.653847 
	C43.365959,81.334877 43.860622,84.655983 43.856873,87.096642 
	C43.836651,100.260826 43.801540,113.425285 43.865227,126.589195 
	C43.911274,136.107239 48.848225,141.102097 58.345894,141.129532 
	C80.672539,141.194016 102.999893,141.215576 125.325775,141.070404 
	C128.044922,141.052719 130.756729,139.906830 134.154846,138.905823 
M219.604828,112.929405 
	C225.940582,123.235123 227.160416,123.723785 241.296234,121.386528 
	C236.013855,113.117668 230.812988,104.976410 225.577209,96.780502 
	C235.194382,90.935066 238.279007,82.791588 236.315689,72.572639 
	C234.313019,62.148701 227.694656,55.827450 217.460342,54.827778 
	C207.635788,53.868137 197.644012,54.620430 187.529266,54.620430 
	C187.529266,76.843674 187.529266,99.230232 187.529266,121.667374 
	C192.824722,121.667374 197.865570,121.667374 203.214630,121.667374 
	C203.214630,114.219360 203.214630,107.110947 203.214630,100.334518 
	C209.277420,98.399162 212.978928,100.587715 215.282639,105.969093 
	C216.251907,108.233261 217.856491,110.225456 219.604828,112.929405 
M502.805450,122.005936 
	C505.304291,122.005966 507.848389,121.705322 510.291931,122.072876 
	C514.494751,122.705055 516.999023,121.086838 519.088623,117.468842 
	C522.149170,112.169769 525.744385,107.179497 529.286255,101.792244 
	C533.334351,107.848450 537.064758,113.529015 540.924438,119.120407 
	C541.703979,120.249733 542.934021,121.805061 544.022461,121.860184 
	C549.537476,122.139465 555.074280,121.988747 561.239136,121.988747 
	C554.267517,111.534828 547.981201,101.755684 541.289062,92.262680 
	C538.902283,88.877037 538.942505,86.524803 541.312317,83.140106 
	C547.842712,73.813126 553.939636,64.182610 560.655273,53.993481 
	C554.994568,53.993481 550.202759,53.742764 545.461548,54.123188 
	C543.691528,54.265209 541.479736,55.469696 540.433960,56.896641 
	C536.566711,62.173424 533.102417,67.745476 529.167725,73.688255 
	C525.120544,67.620369 521.527466,62.054928 517.709045,56.648682 
	C516.877686,55.471699 515.277344,54.186760 513.966675,54.114090 
	C508.746979,53.824673 503.501801,53.994850 497.541931,53.994850 
	C501.839783,60.473404 505.677094,66.248329 509.504395,72.029877 
	C512.900208,77.159622 518.960571,82.308685 518.937744,87.427376 
	C518.913940,92.772285 513.079163,98.123451 509.692474,103.412773 
	C505.804291,109.485252 501.814667,115.492798 497.557037,122.005936 
	C499.591888,122.005936 500.748474,122.005936 502.805450,122.005936 
M390.491669,73.844208 
	C380.448456,80.139359 375.314789,90.381767 378.432373,102.006332 
	C383.807861,122.050072 396.895294,126.953468 415.695251,119.185249 
	C415.776642,119.710945 415.942261,120.780548 416.077789,121.655731 
	C421.172211,121.655731 426.072723,121.655731 430.977722,121.655731 
	C430.977722,99.022568 430.979126,76.738747 430.962311,54.454948 
	C430.962097,54.165821 430.730316,53.876869 430.577576,53.520023 
	C425.726715,53.520023 420.869415,53.520023 415.518738,53.520023 
	C415.518738,60.883415 415.518738,67.891159 415.518738,75.296646 
	C407.359436,69.196487 399.338501,69.496323 390.491669,73.844208 
M476.492432,102.008499 
	C480.969727,102.008499 485.447021,102.008499 489.855316,102.008499 
	C492.616791,88.968758 487.176605,77.540466 476.131714,72.729652 
	C465.069244,67.911186 451.096893,71.814087 444.074677,81.684158 
	C436.462738,92.383110 438.199585,107.776588 447.958282,116.104645 
	C459.127441,125.636368 476.814819,125.293144 487.150970,115.274651 
	C483.308075,110.382935 479.694763,105.838318 472.139679,109.435715 
	C469.639526,110.626190 465.900696,109.768158 462.870453,109.149704 
	C459.250916,108.410980 456.417969,106.314064 455.651367,102.008499 
	C462.504303,102.008499 468.999603,102.008499 476.492432,102.008499 
M293.961243,79.607109 
	C283.053314,68.021042 267.028564,67.403671 255.771362,78.135788 
	C245.912552,87.534760 245.351257,104.686317 254.591476,114.189743 
	C265.692657,125.607117 284.779358,126.108551 295.761047,115.271324 
	C289.501038,107.983162 289.507202,108.015953 280.858276,109.639107 
	C279.240082,109.942795 277.546021,109.999298 275.894775,109.942604 
	C269.325745,109.717102 265.877472,107.301079 264.409698,101.791824 
	C275.907379,101.791824 287.327545,101.791824 298.836334,101.791824 
	C299.691864,93.905693 299.204132,86.609802 293.961243,79.607109 
M305.513062,109.494667 
	C309.614655,121.079048 321.894318,126.064613 334.679352,121.336205 
	C342.073456,118.601570 346.087402,113.695137 346.158539,107.304550 
	C346.236572,100.294678 343.023560,96.054794 335.243591,93.027367 
	C331.847107,91.705688 328.258850,90.776878 325.060638,89.093918 
	C323.748352,88.403374 323.235992,86.192749 322.359741,84.673592 
	C324.146820,84.148712 325.935699,83.240707 327.720306,83.248940 
	C328.720734,83.253548 329.640533,84.892311 330.732758,85.578079 
	C331.704285,86.188087 332.980560,87.046272 333.918762,86.845169 
	C337.444275,86.089478 340.886536,84.945351 344.396851,83.936157 
	C340.222137,73.481842 332.371887,69.209908 321.102081,70.938034 
	C314.023041,72.023544 308.361542,76.857109 307.217834,82.791862 
	C305.968109,89.276878 309.260254,95.391113 316.272827,98.941742 
	C319.810150,100.732796 323.699371,101.834618 327.213776,103.662704 
	C328.723694,104.448090 329.685455,106.287254 330.896240,107.647644 
	C329.054230,108.762062 326.908417,111.104507 325.432465,110.739372 
	C322.199493,109.939552 319.306152,107.766937 315.181396,105.574005 
	C313.058075,106.305611 309.480438,107.538315 305.513062,109.494667 
M354.062836,94.500031 
	C354.062836,103.598236 354.062836,112.696442 354.062836,121.865898 
	C359.463470,121.865898 364.254822,121.865898 369.298828,121.865898 
	C369.298828,105.132095 369.298828,88.555428 369.298828,71.748512 
	C364.142151,71.748512 359.240845,71.748512 354.062836,71.748512 
	C354.062836,79.197899 354.062836,86.348976 354.062836,94.500031 
M369.539490,54.995255 
	C368.934387,54.377907 368.347290,53.247551 367.721283,53.225574 
	C363.303772,53.070515 358.878265,53.143211 354.265015,53.143211 
	C354.265015,57.733181 354.265015,61.797260 354.265015,65.965813 
	C359.363220,65.965813 364.274414,65.965813 369.557922,65.965813 
	C369.557922,62.456928 369.557922,59.174809 369.539490,54.995255 
z"/>
<path fill="#845DF1" opacity="1.000000" stroke="none" 
	d="
M133.813385,139.094818 
	C130.756729,139.906830 128.044922,141.052719 125.325775,141.070404 
	C102.999893,141.215576 80.672539,141.194016 58.345894,141.129532 
	C48.848225,141.102097 43.911274,136.107239 43.865227,126.589195 
	C43.801540,113.425285 43.836651,100.260826 43.856873,87.096642 
	C43.860622,84.655983 43.365959,81.334877 46.944393,81.653847 
	C48.084560,81.755470 49.704594,85.364883 49.749607,87.399208 
	C50.014973,99.391098 49.877796,111.391853 49.881088,123.389618 
	C49.883919,133.702042 51.324570,135.116745 61.802471,135.118759 
	C65.602776,135.119492 69.403076,135.118866 73.847160,135.118866 
	C73.847160,127.407219 73.844757,120.128540 73.848000,112.849869 
	C73.850159,108.017509 73.748100,103.181702 73.895882,98.353668 
	C74.074257,92.526329 77.427124,89.101387 83.279350,88.920013 
	C89.105484,88.739471 94.946838,88.733360 100.772003,88.931137 
	C106.152962,89.113815 109.840889,92.763245 109.951736,98.159714 
	C110.136482,107.154289 110.145439,116.159569 109.866127,125.149086 
	C109.823235,126.529510 107.844711,127.849792 106.761398,129.197906 
	C105.836861,127.749428 104.161774,126.325790 104.112854,124.848312 
	C103.848305,116.858536 103.801910,108.849564 104.056076,100.859154 
	C104.204559,96.191002 102.279182,94.597183 97.827972,94.830170 
	C93.341003,95.065018 88.831268,94.946579 84.333595,94.866158 
	C81.393707,94.813606 80.022385,96.162529 80.023422,99.049576 
	C80.027649,110.858925 80.025192,122.668274 80.025192,134.822037 
	C81.557732,135.006851 82.809334,135.286087 84.061607,135.289093 
	C97.392380,135.321259 110.723381,135.342606 124.054070,135.296829 
	C131.338547,135.271805 133.945618,132.674408 133.969055,125.336121 
	C134.021729,108.839355 134.092300,92.340790 133.854950,75.847275 
	C133.824463,73.728821 132.536880,71.028877 130.932236,69.630112 
	C120.637413,60.656124 110.111237,51.946518 99.621017,43.198074 
	C93.015953,37.689701 91.041344,37.654594 84.512886,43.079212 
	C67.600540,57.131992 50.734226,71.240158 33.850449,85.327309 
	C33.594700,85.540688 33.374935,85.806221 33.097347,85.982956 
	C30.877060,87.396629 28.672251,90.990135 25.941160,87.850822 
	C23.089657,84.573105 26.941891,83.036827 28.947014,81.363304 
	C45.955582,67.167595 63.008343,53.024860 80.029831,38.844601 
	C89.392891,31.044420 93.813034,30.944353 103.205017,38.686897 
	C120.295586,52.775993 137.335068,66.927055 154.388977,81.060600 
	C155.413971,81.910072 156.706116,82.662888 157.279175,83.768875 
	C157.859985,84.889801 157.702194,86.393425 157.867920,87.729439 
	C156.404861,87.825493 154.458679,88.573074 153.560623,87.907166 
	C149.182144,84.660431 145.083710,81.036018 140.014328,76.820145 
	C140.014328,80.645721 140.014420,83.537819 140.014328,86.429916 
	C140.013916,99.760773 139.925247,113.092491 140.057007,126.422043 
	C140.108734,131.652573 138.512741,135.873398 133.813385,139.094818 
z"/>
<path fill="#050505" opacity="1.000000" stroke="none" 
	d="
M219.388550,112.635345 
	C217.856491,110.225456 216.251907,108.233261 215.282639,105.969093 
	C212.978928,100.587715 209.277420,98.399162 203.214630,100.334518 
	C203.214630,107.110947 203.214630,114.219360 203.214630,121.667374 
	C197.865570,121.667374 192.824722,121.667374 187.529266,121.667374 
	C187.529266,99.230232 187.529266,76.843674 187.529266,54.620430 
	C197.644012,54.620430 207.635788,53.868137 217.460342,54.827778 
	C227.694656,55.827450 234.313019,62.148701 236.315689,72.572639 
	C238.279007,82.791588 235.194382,90.935066 225.577209,96.780502 
	C230.812988,104.976410 236.013855,113.117668 241.296234,121.386528 
	C227.160416,123.723785 225.940582,123.235123 219.388550,112.635345 
M217.472092,69.818321 
	C212.857330,69.065254 208.242569,68.312187 203.246399,67.496880 
	C203.246399,74.443848 203.246399,80.328163 203.246399,86.488853 
	C206.067520,86.488853 208.698715,86.571815 211.322632,86.469093 
	C215.104309,86.321045 218.887115,85.594048 220.369690,81.619225 
	C221.878525,77.573975 221.822159,73.455238 217.472092,69.818321 
z"/>
<path fill="#040404" opacity="1.000000" stroke="none" 
	d="
M502.355286,122.005936 
	C500.748474,122.005936 499.591888,122.005936 497.557037,122.005936 
	C501.814667,115.492798 505.804291,109.485252 509.692474,103.412773 
	C513.079163,98.123451 518.913940,92.772285 518.937744,87.427376 
	C518.960571,82.308685 512.900208,77.159622 509.504395,72.029877 
	C505.677094,66.248329 501.839783,60.473404 497.541931,53.994850 
	C503.501801,53.994850 508.746979,53.824673 513.966675,54.114090 
	C515.277344,54.186760 516.877686,55.471699 517.709045,56.648682 
	C521.527466,62.054928 525.120544,67.620369 529.167725,73.688255 
	C533.102417,67.745476 536.566711,62.173424 540.433960,56.896641 
	C541.479736,55.469696 543.691528,54.265209 545.461548,54.123188 
	C550.202759,53.742764 554.994568,53.993481 560.655273,53.993481 
	C553.939636,64.182610 547.842712,73.813126 541.312317,83.140106 
	C538.942505,86.524803 538.902283,88.877037 541.289062,92.262680 
	C547.981201,101.755684 554.267517,111.534828 561.239136,121.988747 
	C555.074280,121.988747 549.537476,122.139465 544.022461,121.860184 
	C542.934021,121.805061 541.703979,120.249733 540.924438,119.120407 
	C537.064758,113.529015 533.334351,107.848450 529.286255,101.792244 
	C525.744385,107.179497 522.149170,112.169769 519.088623,117.468842 
	C516.999023,121.086838 514.494751,122.705055 510.291931,122.072876 
	C507.848389,121.705322 505.304291,122.005966 502.355286,122.005936 
z"/>
<path fill="#030303" opacity="1.000000" stroke="none" 
	d="
M390.793671,73.617065 
	C399.338501,69.496323 407.359436,69.196487 415.518738,75.296646 
	C415.518738,67.891159 415.518738,60.883415 415.518738,53.520023 
	C420.869415,53.520023 425.726715,53.520023 430.577576,53.520023 
	C430.730316,53.876869 430.962097,54.165821 430.962311,54.454948 
	C430.979126,76.738747 430.977722,99.022568 430.977722,121.655731 
	C426.072723,121.655731 421.172211,121.655731 416.077789,121.655731 
	C415.942261,120.780548 415.776642,119.710945 415.695251,119.185249 
	C396.895294,126.953468 383.807861,122.050072 378.432373,102.006332 
	C375.314789,90.381767 380.448456,80.139359 390.793671,73.617065 
M402.919769,84.144547 
	C395.803925,86.153687 392.838989,89.750404 392.823334,96.392395 
	C392.808624,102.627785 395.809479,107.299149 401.011749,108.694305 
	C405.636200,109.934502 410.057617,109.454483 413.319153,105.540375 
	C417.123871,100.974373 417.123383,95.712814 415.013947,90.490471 
	C413.010040,85.529205 408.879333,83.776848 402.919769,84.144547 
z"/>
<path fill="#050505" opacity="1.000000" stroke="none" 
	d="
M475.993683,102.008499 
	C468.999603,102.008499 462.504303,102.008499 455.651367,102.008499 
	C456.417969,106.314064 459.250916,108.410980 462.870453,109.149704 
	C465.900696,109.768158 469.639526,110.626190 472.139679,109.435715 
	C479.694763,105.838318 483.308075,110.382935 487.150970,115.274651 
	C476.814819,125.293144 459.127441,125.636368 447.958282,116.104645 
	C438.199585,107.776588 436.462738,92.383110 444.074677,81.684158 
	C451.096893,71.814087 465.069244,67.911186 476.131714,72.729652 
	C487.176605,77.540466 492.616791,88.968758 489.855316,102.008499 
	C485.447021,102.008499 480.969727,102.008499 475.993683,102.008499 
M458.297516,86.885315 
	C457.398254,88.084427 456.498962,89.283539 455.297058,90.886215 
	C462.808777,90.886215 469.357574,90.886215 476.015411,90.886215 
	C472.922394,83.495438 466.161285,81.802940 458.297516,86.885315 
z"/>
<path fill="#040404" opacity="1.000000" stroke="none" 
	d="
M294.172791,79.903442 
	C299.204132,86.609802 299.691864,93.905693 298.836334,101.791824 
	C287.327545,101.791824 275.907379,101.791824 264.409698,101.791824 
	C265.877472,107.301079 269.325745,109.717102 275.894775,109.942604 
	C277.546021,109.999298 279.240082,109.942795 280.858276,109.639107 
	C289.507202,108.015953 289.501038,107.983162 295.761047,115.271324 
	C284.779358,126.108551 265.692657,125.607117 254.591476,114.189743 
	C245.351257,104.686317 245.912552,87.534760 255.771362,78.135788 
	C267.028564,67.403671 283.053314,68.021042 294.172791,79.903442 
M284.603516,90.999245 
	C283.766754,86.063484 280.076385,84.399559 275.835968,83.919029 
	C270.537476,83.318588 266.771332,85.826691 263.866913,91.157257 
	C270.963776,91.157257 277.364197,91.157257 284.603516,90.999245 
z"/>
<path fill="#050505" opacity="1.000000" stroke="none" 
	d="
M305.707947,109.132843 
	C309.480438,107.538315 313.058075,106.305611 315.181396,105.574005 
	C319.306152,107.766937 322.199493,109.939552 325.432465,110.739372 
	C326.908417,111.104507 329.054230,108.762062 330.896240,107.647652 
	C329.685455,106.287254 328.723694,104.448090 327.213776,103.662704 
	C323.699371,101.834618 319.810150,100.732796 316.272827,98.941742 
	C309.260254,95.391113 305.968109,89.276878 307.217834,82.791862 
	C308.361542,76.857109 314.023041,72.023544 321.102081,70.938034 
	C332.371887,69.209908 340.222137,73.481842 344.396851,83.936157 
	C340.886536,84.945351 337.444275,86.089478 333.918762,86.845169 
	C332.980560,87.046272 331.704285,86.188087 330.732758,85.578079 
	C329.640533,84.892311 328.720734,83.253548 327.720306,83.248940 
	C325.935699,83.240707 324.146820,84.148712 322.359741,84.673592 
	C323.235992,86.192749 323.748352,88.403374 325.060638,89.093918 
	C328.258850,90.776878 331.847107,91.705688 335.243591,93.027367 
	C343.023560,96.054794 346.236572,100.294678 346.158539,107.304550 
	C346.087402,113.695137 342.073456,118.601570 334.679352,121.336205 
	C321.894318,126.064613 309.614655,121.079048 305.707947,109.132843 
z"/>
<path fill="#0C0C0C" opacity="1.000000" stroke="none" 
	d="
M354.062836,94.000046 
	C354.062836,86.348976 354.062836,79.197899 354.062836,71.748512 
	C359.240845,71.748512 364.142151,71.748512 369.298828,71.748512 
	C369.298828,88.555428 369.298828,105.132095 369.298828,121.865898 
	C364.254822,121.865898 359.463470,121.865898 354.062836,121.865898 
	C354.062836,112.696442 354.062836,103.598236 354.062836,94.000046 
z"/>
<path fill="#0E0E0E" opacity="1.000000" stroke="none" 
	d="
M369.548706,55.443970 
	C369.557922,59.174809 369.557922,62.456928 369.557922,65.965813 
	C364.274414,65.965813 359.363220,65.965813 354.265015,65.965813 
	C354.265015,61.797260 354.265015,57.733181 354.265015,53.143211 
	C358.878265,53.143211 363.303772,53.070515 367.721283,53.225574 
	C368.347290,53.247551 368.934387,54.377907 369.548706,55.443970 
z"/>
<path fill="#FAFAFA" opacity="1.000000" stroke="none" 
	d="
M217.815308,70.024902 
	C221.822159,73.455238 221.878525,77.573975 220.369690,81.619225 
	C218.887115,85.594048 215.104309,86.321045 211.322632,86.469093 
	C208.698715,86.571815 206.067520,86.488853 203.246399,86.488853 
	C203.246399,80.328163 203.246399,74.443848 203.246399,67.496880 
	C208.242569,68.312187 212.857330,69.065254 217.815308,70.024902 
z"/>
<path fill="#FBFBFB" opacity="1.000000" stroke="none" 
	d="
M403.325226,84.108963 
	C408.879333,83.776848 413.010040,85.529205 415.013947,90.490471 
	C417.123383,95.712814 417.123871,100.974373 413.319153,105.540375 
	C410.057617,109.454483 405.636200,109.934502 401.011749,108.694305 
	C395.809479,107.299149 392.808624,102.627785 392.823334,96.392395 
	C392.838989,89.750404 395.803925,86.153687 403.325226,84.108963 
z"/>
<path fill="#FBFBFB" opacity="1.000000" stroke="none" 
	d="
M458.600098,86.620232 
	C466.161285,81.802940 472.922394,83.495438 476.015411,90.886215 
	C469.357574,90.886215 462.808777,90.886215 455.297058,90.886215 
	C456.498962,89.283539 457.398254,88.084427 458.600098,86.620232 
z"/>
<path fill="#F8F8F8" opacity="1.000000" stroke="none" 
	d="
M284.184082,91.078247 
	C277.364197,91.157257 270.963776,91.157257 263.866913,91.157257 
	C266.771332,85.826691 270.537476,83.318588 275.835968,83.919029 
	C280.076385,84.399559 283.766754,86.063484 284.184082,91.078247 
z"/>
</svg>