<svg width="173" height="40" viewBox="0 0 173 40" fill="none" xmlns="http://www.w3.org/2000/svg">
<path d="M0 31.0872V0H13.9445C16.3419 0 18.4301 0.437676 20.2052 1.31058C21.9816 2.18471 23.3435 3.39015 24.291 4.92936C25.2385 6.46978 25.7129 8.18625 25.7129 10.0812C25.7129 12.3906 25.0246 14.3663 23.648 16.0094C22.2714 17.6525 20.4131 18.8298 18.0743 19.5402L25.6236 31.086H19.5389L12.5227 20.2052H5.2839V31.086H0V31.0872ZM13.8553 15.2331C15.9581 15.2331 17.5559 14.7673 18.6526 13.8333C19.7468 12.9004 20.2957 11.651 20.2957 10.0812C20.2957 8.51145 19.7468 7.30601 18.6526 6.3732C17.5572 5.44039 15.9581 4.97337 13.8553 4.97337H5.2839V15.2319H13.8553V15.2331Z" fill="#2E2E2E"/>
<path d="M38.8134 31.619C36.6213 31.619 34.6396 31.108 32.8632 30.0872C31.0868 29.0663 29.6809 27.6604 28.6441 25.8681C27.6074 24.0771 27.0903 22.0867 27.0903 19.8947C27.0903 17.7026 27.6074 15.7062 28.6441 13.8993C29.6809 12.0935 31.0868 10.6803 32.8632 9.6582C34.6396 8.63737 36.6226 8.12634 38.8134 8.12634C41.0042 8.12634 43.0324 8.63737 44.8088 9.6582C46.5852 10.6803 47.9765 12.0862 48.9826 13.8773C49.9888 15.6683 50.4925 17.6293 50.4925 19.7614V21.094H32.0624C32.2103 22.2481 32.6028 23.2995 33.2397 24.247C33.8767 25.1945 34.6836 25.9415 35.6604 26.4892C36.6372 27.0381 37.6886 27.3107 38.8134 27.3107C40.3526 27.3107 41.6558 26.9929 42.7207 26.3559C43.7867 25.719 44.5704 24.928 45.0753 23.9793H50.1379C49.3983 26.1114 48.073 27.9171 46.1634 29.3976C44.2538 30.8782 41.8038 31.6178 38.8134 31.6178V31.619ZM45.2978 17.6745C45.1487 16.727 44.7868 15.8541 44.2098 15.0546C43.6327 14.255 42.8772 13.6193 41.9444 13.1449C41.0115 12.6718 39.9675 12.4346 38.8134 12.4346C37.6593 12.4346 36.6605 12.6718 35.7264 13.1449C34.7936 13.6193 34.032 14.255 33.439 15.0546C32.8473 15.8541 32.4328 16.727 32.1957 17.6745H45.2966H45.2978Z" fill="#2E2E2E"/>
<path d="M63.0609 31.619C61.1354 31.619 59.3663 31.1227 57.7538 30.1312C56.14 29.1397 54.86 27.7484 53.9125 25.9561C52.965 24.1651 52.4919 22.1442 52.4919 19.8947C52.4919 17.6452 52.965 15.5803 53.9125 13.788C54.86 11.997 56.14 10.6057 57.7538 9.61419C59.3676 8.6227 61.1354 8.12634 63.0609 8.12634C64.4522 8.12634 65.6735 8.35618 66.7249 8.81464C67.7751 9.27432 68.6272 9.81469 69.2789 10.4358C69.9293 11.058 70.3596 11.5458 70.5674 11.9016H70.7007V8.65937H75.586V31.086H70.7007V27.8438H70.5674C70.3596 28.2289 69.9293 28.7252 69.2789 29.3316C68.6272 29.9392 67.7751 30.471 66.7249 30.9307C65.6735 31.3892 64.4522 31.619 63.0609 31.619ZM64.0377 27.312C65.2811 27.312 66.4144 27.0088 67.4352 26.4011C68.4561 25.7948 69.2556 24.9292 69.8339 23.8032C70.4109 22.6785 70.6995 21.3752 70.6995 19.8947C70.6995 18.4142 70.4109 17.0681 69.8339 15.9422C69.2556 14.8174 68.4561 13.9518 67.4352 13.3442C66.4144 12.7378 65.2823 12.4334 64.0377 12.4334C62.7932 12.4334 61.7137 12.7378 60.7063 13.3442C59.7001 13.9518 58.9079 14.8174 58.3308 15.9422C57.7538 17.0681 57.4653 18.3848 57.4653 19.8947C57.4653 21.4046 57.7538 22.6785 58.3308 23.8032C58.9079 24.9292 59.7001 25.7935 60.7063 26.4011C61.7124 27.0088 62.8225 27.312 64.0377 27.312Z" fill="#2E2E2E"/>
<path d="M80.025 31.087V-0.000181198H84.8663V26.7787H89.9729V31.0858H80.025V31.087Z" fill="#2E2E2E"/>
<path d="M93.081 31.087V12.9674H90.1945V8.66036H93.081V3.77501H97.9651V8.66036H104.715V12.9674H97.9651V26.7787H104.937V31.0858H93.0798L93.081 31.087Z" fill="#2E2E2E"/>
<path d="M114.175 39.524L116.751 31.0859H111.732L105.737 8.65924H110.845L115.508 26.7788H118.038L123.411 8.65924H128.474L119.282 39.524H114.175Z" fill="#2E2E2E"/>
<path d="M154.23 20.5089L135.622 8.39579V0.000478745H141.945V4.96773L154.246 12.9755L166.678 4.95918V0.000478745H173V8.40557L154.23 20.5089Z" fill="#7F57F1"/>
<path d="M173 39.5231H166.678V34.5559L154.376 26.5493L141.945 34.5656V39.5231H135.622V31.1193L154.392 19.0147L173 31.1278V39.5231Z" fill="#7F57F1"/>
</svg>
